<svg width="512" height="625" viewBox="0 0 512 625" fill="none" xmlns="http://www.w3.org/2000/svg">
<path d="M491.342 130.059C397.675 105.25 346.624 83.0131 258.888 24.5939C175.998 88.4653 120.917 105.259 20.3423 130.059C26.1441 397.813 90.0904 489.836 259.903 600.594C430.454 482.63 489.968 386.857 491.342 130.059Z" stroke="#3053F7" stroke-width="40"/>
<path d="M491.342 130.059C397.675 105.25 346.624 83.0131 258.888 24.5939C175.998 88.4653 120.917 105.259 20.3423 130.059C26.1441 397.813 90.0904 489.836 259.903 600.594C430.454 482.63 489.968 386.857 491.342 130.059Z" stroke="url(#paint0_linear_2048_45)" stroke-width="40"/>
<path d="M184.007 225.004C165.389 66.2008 347.191 57.4391 324.191 225.004" stroke="url(#paint1_linear_2048_45)" stroke-width="33"/>
<path d="M350.046 218.433H160.342C143.774 218.433 130.342 231.864 130.342 248.433V420.614C130.342 437.182 143.774 450.614 160.342 450.614H350.046C366.615 450.614 380.046 437.182 380.046 420.614V248.433C380.046 231.864 366.615 218.433 350.046 218.433Z" fill="url(#paint2_linear_2048_45)"/>
<rect x="224.529" y="272.097" width="59.1404" height="59.1404" rx="29.5702" fill="#FDFDFD"/>
<path d="M239.771 326.734C240.138 324.287 242.24 322.476 244.715 322.476H263.483C265.958 322.476 268.061 324.287 268.428 326.734L275.142 371.494C275.595 374.517 273.254 377.236 270.197 377.236H238.001C234.944 377.236 232.603 374.517 233.057 371.494L239.771 326.734Z" fill="white"/>
<defs>
<linearGradient id="paint0_linear_2048_45" x1="504.342" y1="53.5939" x2="90.3423" y2="611.594" gradientUnits="userSpaceOnUse">
<stop stop-color="#3053F7"/>
<stop offset="1" stop-color="#6224F5"/>
</linearGradient>
<linearGradient id="paint1_linear_2048_45" x1="330.169" y1="108.757" x2="255.13" y2="253.795" gradientUnits="userSpaceOnUse">
<stop stop-color="#3053F7"/>
<stop offset="1" stop-color="#6224F5"/>
</linearGradient>
<linearGradient id="paint2_linear_2048_45" x1="386.938" y1="230.122" x2="237.701" y2="494.675" gradientUnits="userSpaceOnUse">
<stop stop-color="#3053F7"/>
<stop offset="1" stop-color="#6224F5"/>
</linearGradient>
</defs>
</svg>
